<svg xmlns="http://www.w3.org/2000/svg" viewBox="0 0 347.88 310.67"><defs><style>.cls-1{fill:#1c344f;}.cls-2{fill:#2fa6e0;}</style></defs><g id="Layer_2" data-name="Layer 2"><g id="Layer_2-2" data-name="Layer 2"><path class="cls-1" d="M34.44,289q0,10.15-5.59,15.65t-15.72,5.5H0V269.54H14q9.77,0,15.09,5T34.44,289Zm-11.38.39q0-5.58-2.2-8.27c-1.48-1.8-3.71-2.69-6.71-2.69H11v22.73H13.4c3.33,0,5.78-1,7.33-2.9S23.06,293.34,23.06,289.36Z"/><path class="cls-1" d="M69.16,310.12l-2-7.61H54l-2,7.61h-12l13.24-40.74H67.75l13.4,40.74Zm-4.27-16.6-1.75-6.66c-.41-1.48-.9-3.39-1.49-5.74s-1-4-1.15-5.05c-.16.94-.49,2.49-1,4.66s-1.58,6.43-3.26,12.79Z"/><path class="cls-1" d="M88.09,310.12V269.54h11v40.58Z"/><path class="cls-1" d="M110.44,310.12V269.54h11v31.72H137v8.86Z"/><path class="cls-1" d="M160.56,284.59l7-15h11.88l-13.35,24.73v15.85H155V294.6l-13.35-25.06h11.94Z"/><path class="cls-1" d="M230.23,297.79a12,12,0,0,1-1.91,6.71,12.55,12.55,0,0,1-5.53,4.55,20.46,20.46,0,0,1-8.46,1.62,34.19,34.19,0,0,1-6.8-.57,25.49,25.49,0,0,1-5.72-2v-9.77a32.89,32.89,0,0,0,6.52,2.51,24.38,24.38,0,0,0,6.22.9,6.07,6.07,0,0,0,3.58-.84,2.61,2.61,0,0,0,1.14-2.18,2.38,2.38,0,0,0-.46-1.46,5.49,5.49,0,0,0-1.47-1.26,58.4,58.4,0,0,0-5.4-2.61,25.78,25.78,0,0,1-5.95-3.5,10.79,10.79,0,0,1-2.94-3.88,12.86,12.86,0,0,1-1-5.19,10.39,10.39,0,0,1,4.08-8.74q4.08-3.14,11.21-3.14a31.37,31.37,0,0,1,12.85,2.92l-3.36,8.46a24.32,24.32,0,0,0-9.82-2.61,5.12,5.12,0,0,0-3.11.75,2.26,2.26,0,0,0-1,1.86,2.7,2.7,0,0,0,1.23,2.14,48,48,0,0,0,6.71,3.44q5.24,2.35,7.28,5.06A11,11,0,0,1,230.23,297.79Z"/><path class="cls-1" d="M277,289.77q0,10.25-5,15.57t-14.71,5.33q-9.54,0-14.64-5.35t-5.09-15.6q0-10.12,5.07-15.47t14.72-5.35q9.67,0,14.68,5.31T277,289.77Zm-27.91,0q0,11.78,8.18,11.77a7,7,0,0,0,6.18-2.86q2-2.85,2-8.91t-2-9a6.94,6.94,0,0,0-6.09-2.9Q249.1,277.9,249.11,289.77Z"/><path class="cls-1" d="M297.7,310.12H286.91V269.54h24v8.8H297.7v7.74h12.16v8.8H297.7Z"/><path class="cls-1" d="M338,310.12H327V278.51h-9.91v-9h30.75v9H338Z"/><path class="cls-1" d="M110.32,125.82h64.74l31.91-31H91.71a12.8,12.8,0,0,0-12.8,12.8v91.73a38.23,38.23,0,0,0,4.86,18.7l26.55-26.55Z"/><path class="cls-2" d="M256.28,94.52H237.69L204.51,129V206H126.18L99,233.15a38.27,38.27,0,0,0,18.32,4.64h81.93a38.19,38.19,0,0,0,38.19-38.19v-9.77h18.84a12.8,12.8,0,0,0,12.8-12.8v-69.7A12.81,12.81,0,0,0,256.28,94.52Zm-3.46,71.37a7.68,7.68,0,0,1-7.68,7.68h-7.7V110.78h7.7a7.68,7.68,0,0,1,7.68,7.68Z"/><path class="cls-2" d="M186.38,0s9.12,22.33-12.25,33.23a40.26,40.26,0,0,0-4.1,2.44c-5.31,3.54-16.18,11.45-17.67,17.86,0,0-8.34-23.66,18.17-34.4a17.09,17.09,0,0,0,2.73-1.39C176.83,15.47,185.42,9.1,186.38,0Z"/><path class="cls-2" d="M195.38,24.57s8,21.91-11.27,32.84a32.33,32.33,0,0,1-4.71,2.16c-3.88,1.46-16.28,7-20.77,19.49,0,0-8.82-25.08,17.18-34.51.33-.12.67-.22,1-.32C179.08,43.58,190.14,39.68,195.38,24.57Z"/></g></g></svg>